<?xml version="1.0" encoding="UTF-8" standalone="no"?>
<!-- Created with Inkscape (http://www.inkscape.org/) -->

<svg
   xmlns:dc="http://purl.org/dc/elements/1.1/"
   xmlns:cc="http://creativecommons.org/ns#"
   xmlns:rdf="http://www.w3.org/1999/02/22-rdf-syntax-ns#"
   xmlns:svg="http://www.w3.org/2000/svg"
   xmlns="http://www.w3.org/2000/svg"
   xmlns:sodipodi="http://sodipodi.sourceforge.net/DTD/sodipodi-0.dtd"
   xmlns:inkscape="http://www.inkscape.org/namespaces/inkscape"
   width="210mm"
   height="297mm"
   id="svg2987"
   version="1.1"
   inkscape:version="0.48.2 r9819"
   sodipodi:docname="hello.svg">
  <defs
     id="defs2989" />
  <sodipodi:namedview
     id="base"
     pagecolor="#ffffff"
     bordercolor="#666666"
     borderopacity="1.0"
     inkscape:pageopacity="0.0"
     inkscape:pageshadow="2"
     inkscape:zoom="0.98994949"
     inkscape:cx="326.71037"
     inkscape:cy="656.06215"
     inkscape:document-units="px"
     inkscape:current-layer="layer1"
     showgrid="false"
     inkscape:window-width="1440"
     inkscape:window-height="876"
     inkscape:window-x="0"
     inkscape:window-y="24"
     inkscape:window-maximized="1" />
  <metadata
     id="metadata2992">
    <rdf:RDF>
      <cc:Work
         rdf:about="">
        <dc:format>image/svg+xml</dc:format>
        <dc:type
           rdf:resource="http://purl.org/dc/dcmitype/StillImage" />
        <dc:title />
      </cc:Work>
    </rdf:RDF>
  </metadata>
  <g
     inkscape:label="Ebene 1"
     inkscape:groupmode="layer"
     id="layer1">
    <path
       style="font-size:40px;font-style:normal;font-variant:normal;font-weight:normal;font-stretch:normal;text-indent:0;text-align:start;text-decoration:none;line-height:125%;letter-spacing:0px;word-spacing:0px;text-transform:none;direction:ltr;block-progression:tb;writing-mode:lr-tb;text-anchor:start;baseline-shift:baseline;color:#000000;fill:none;fill-opacity:1;stroke:#000000;stroke-width:1;marker:none;visibility:visible;display:inline;overflow:visible;enable-background:accumulate;font-family:Arial;-inkscape-font-specification:Arial;stroke-opacity:1"
       d="m 64.34375,171.65625 0,0.5 0,103.0625 0.5,0 0,0.5 20.8125,0 0.5,0 0,-0.5 0,-44.5625 39.78125,0 0,44.5625 0,0.5 0.5,0 20.8125,0 0.5,0 0,-0.5 0,-103.0625 0,-0.5 -0.5,0 -20.8125,0 -0.5,0 0,0.5 0,40.0625 -39.78125,0 0,-40.0625 0,-0.5 -0.5,0 -20.8125,0 z"
       id="path3797" />
    <path
       style="font-size:40px;font-style:normal;font-variant:normal;font-weight:normal;font-stretch:normal;text-indent:0;text-align:start;text-decoration:none;line-height:125%;letter-spacing:0px;word-spacing:0px;text-transform:none;direction:ltr;block-progression:tb;writing-mode:lr-tb;text-anchor:start;baseline-shift:baseline;color:#000000;fill:none;fill-opacity:1;stroke:#000000;stroke-width:1;marker:none;visibility:visible;display:inline;overflow:visible;enable-background:accumulate;font-family:Arial;-inkscape-font-specification:Arial;stroke-opacity:1"
       d="m 328.21875,171.65625 0,0.5 0,103.0625 0.5,0 0,0.5 19.75,0 0.5,0 0,-0.5 0,-103.0625 0,-0.5 -0.5,0 -19.75,0 z"
       id="path3795" />
    <path
       style="font-size:40px;font-style:normal;font-variant:normal;font-weight:normal;font-stretch:normal;text-indent:0;text-align:start;text-decoration:none;line-height:125%;letter-spacing:0px;word-spacing:0px;text-transform:none;direction:ltr;block-progression:tb;writing-mode:lr-tb;text-anchor:start;baseline-shift:baseline;color:#000000;fill:none;fill-opacity:1;stroke:#000000;stroke-width:1;marker:none;visibility:visible;display:inline;overflow:visible;enable-background:accumulate;font-family:Arial;-inkscape-font-specification:Arial;stroke-opacity:1"
       d="m 408.09375,171.65625 0,0.5 0,103.0625 0.5,0 0,0.5 19.75,0 0.5,0 0,-0.5 0,-103.0625 0,-0.5 -0.5,0 -19.75,0 z"
       id="path3793" />
    <path
       style="font-size:40px;font-style:normal;font-variant:normal;font-weight:normal;font-stretch:normal;text-indent:0;text-align:start;text-decoration:none;line-height:125%;letter-spacing:0px;word-spacing:0px;text-transform:none;direction:ltr;block-progression:tb;writing-mode:lr-tb;text-anchor:start;baseline-shift:baseline;color:#000000;fill:none;fill-opacity:1;stroke:#000000;stroke-width:1;marker:none;visibility:visible;display:inline;overflow:visible;enable-background:accumulate;font-family:Arial;-inkscape-font-specification:Arial;stroke-opacity:1"
       d="m 237.09375,198.375 -13.74854,2.67205 -11.15771,8.01545 -7.38517,12.67389 -2.45858,16.70111 1.87775,14.34462 5.62225,11.68663 12.07404,9.70044 17.14471,3.23706 11.40437,-1.42811 9.34563,-4.29064 7.24078,-7.08554 4.97797,-9.66446 0.0937,-0.28125 0.0937,-0.28125 -0.29688,-0.0625 -0.29687,-0.0625 -9.84375,-1.64063 -9.84375,-1.64062 -0.0312,0.23437 -0.0312,0.23438 -0.25,-0.0625 -0.25,-0.0625 -1.94402,4.73513 -2.64973,3.17112 -3.38007,1.82364 -4.11993,0.61386 -6.06561,-1.18037 -4.96564,-3.53838 -3.2828,-5.51032 -1.31095,-7.33343 24.46875,0 24.46875,0 0.25,0 0.25,0 0,-0.25 0,-0.25 -2.0989,-19.92896 -7.2136,-14.10229 -11.57979,-8.39382 z"
       id="path3785" />
    <path
       style="font-size:40px;font-style:normal;font-variant:normal;font-weight:normal;font-stretch:normal;text-indent:0;text-align:start;text-decoration:none;line-height:125%;letter-spacing:0px;word-spacing:0px;text-transform:none;direction:ltr;block-progression:tb;writing-mode:lr-tb;text-anchor:start;baseline-shift:baseline;color:#000000;fill:none;fill-opacity:1;stroke:#000000;stroke-width:1;marker:none;visibility:visible;display:inline;overflow:visible;enable-background:accumulate;font-family:Arial;-inkscape-font-specification:Arial;stroke-opacity:1"
       d="m 522.34375,198.375 -10.57164,1.22492 -9.55336,3.68133 -7.97068,6.02266 -5.93557,8.22734 -3.67887,9.49164 -1.22738,9.82086 1.22253,12.0044 3.68372,10.08935 6.05054,7.97933 8.29321,5.80192 9.68955,3.51605 10.1542,1.17145 15.35419,-2.8137 12.48956,-8.4363 8.33779,-12.7863 2.78721,-15.68245 -2.74377,-15.52765 L 550.5,209.5625 537.9576,201.17414 z"
       id="path3783" />
    <path
       style="font-size:40px;font-style:normal;font-variant:normal;font-weight:normal;font-stretch:normal;text-indent:0;text-align:start;text-decoration:none;line-height:125%;letter-spacing:0px;word-spacing:0px;text-transform:none;direction:ltr;block-progression:tb;writing-mode:lr-tb;text-anchor:start;baseline-shift:baseline;color:#000000;fill:none;fill-opacity:1;stroke:#000000;stroke-width:1;marker:none;visibility:visible;display:inline;overflow:visible;enable-background:accumulate;font-family:Arial;-inkscape-font-specification:Arial;stroke-opacity:1"
       d="m 238.28125,213.46875 -6.10752,1.22433 -4.95498,3.65067 -3.23349,5.74158 -1.01651,7.41467 0,0.25 0,0.25 0.25,0 0.25,0 14.76562,0 14.76563,0 0,-0.25 0,-0.25 0.25,-0.0156 0.25,-0.0156 -1.25917,-7.67657 -3.33458,-5.63593 0,-0.0156 0,-0.0156 -4.84144,-3.48132 -5.78356,-1.17493 0,-5e-5 z"
       id="path3777" />
    <path
       style="font-size:40px;font-style:normal;font-variant:normal;font-weight:normal;font-stretch:normal;text-indent:0;text-align:start;text-decoration:none;line-height:125%;letter-spacing:0px;word-spacing:0px;text-transform:none;direction:ltr;block-progression:tb;writing-mode:lr-tb;text-anchor:start;baseline-shift:baseline;color:#000000;fill:none;fill-opacity:1;stroke:#000000;stroke-width:1;marker:none;visibility:visible;display:inline;overflow:visible;enable-background:accumulate;font-family:Arial;-inkscape-font-specification:Arial;stroke-opacity:1"
       d="m 522.4375,214.46875 -7.33578,1.52076 -6.07047,4.54174 -4.04478,7.38502 -1.33022,9.95873 1.33024,9.95878 4.04476,7.38497 6.07047,4.55742 7.33578,1.53633 7.30629,-1.53573 6.00621,-4.55802 4.0452,-7.41324 1.3298,-10.05551 -1.33078,-9.862 -4.04422,-7.35675 -6.00621,-4.54235 z"
       id="path3773" />
  </g>
</svg>
